{
  "accessors": [
    {
      "bufferView": 2,
      "componentType": 5126,
      "count": 65532,
      "max": [
        5.924032211303711,
        1.8128880262374878,
        11.367027282714844
      ],
      "min": [
        0.14975200593471527,
        -2.066833972930908,
        0.1466829925775528
      ],
      "type": "VEC3"
    },
    {
      "bufferView": 2,
      "byteOffset": 786384,
      "componentType": 5126,
      "count": 65532,
      "max": [
        0.9999945163726807,
        0.9999997615814209,
        0.9990545511245728
      ],
      "min": [
        -0.9683457016944885,
        -0.9999969005584717,
        -0.9999552965164185
      ],
      "type": "VEC3"
    },
    {
      "bufferView": 3,
      "componentType": 5126,
      "count": 65532,
      "max": [
        0.9998845458030701,
        0.9999627470970154,
        0.9999774098396301,
        1.0
      ],
      "min": [
        -0.9992883801460266,
        -0.9999992251396179,
        -0.9999995827674866,
        -1.0
      ],
      "type": "VEC4"
    },
    {
      "bufferView": 1,
      "componentType": 5126,
      "count": 65532,
      "max": [
        0.9999539852142334,
        0.9977759718894958
      ],
      "min": [
        0.0,
        0.04078799858689308
      ],
      "type": "VEC2"
    },
    {
      "bufferView": 0,
      "componentType": 5125,
      "count": 370008,
      "type": "SCALAR"
    },
    {
      "bufferView": 2,
      "byteOffset": 1572768,
      "componentType": 5126,
      "count": 65532,
      "max": [
        5.903076171875,
        1.869981050491333,
        10.859968185424805
      ],
      "min": [
        -1.847174048423767,
        -2.070549964904785,
        0.13438700139522552
      ],
      "type": "VEC3"
    },
    {
      "bufferView": 2,
      "byteOffset": 2359152,
      "componentType": 5126,
      "count": 65532,
      "max": [
        0.9999603033065796,
        0.9999955892562866,
        0.9999668598175049
      ],
      "min": [
        -0.9999984502792358,
        -0.9999998807907104,
        -0.9999955892562866
      ],
      "type": "VEC3"
    },
    {
      "bufferView": 3,
      "byteOffset": 1048512,
      "componentType": 5126,
      "count": 65532,
      "max": [
        0.9999979138374329,
        0.9999911189079285,
        0.9991328716278076,
        1.0
      ],
      "min": [
        -0.9995495080947876,
        -0.9998748898506165,
        -0.9999791383743286,
        -1.0
      ],
      "type": "VEC4"
    },
    {
      "bufferView": 1,
      "byteOffset": 524256,
      "componentType": 5126,
      "count": 65532,
      "max": [
        0.9824569821357727,
        0.9938520193099976
      ],
      "min": [
        0.00019999999494757503,
        0.002111000008881092
      ],
      "type": "VEC2"
    },
    {
      "bufferView": 0,
      "byteOffset": 1480032,
      "componentType": 5125,
      "count": 341097,
      "type": "SCALAR"
    },
    {
      "bufferView": 2,
      "byteOffset": 3145536,
      "componentType": 5126,
      "count": 65532,
      "max": [
        5.614851951599121,
        1.8961349725723267,
        11.248640060424805
      ],
      "min": [
        -4.233643054962158,
        -2.0700230598449707,
        0.13481199741363525
      ],
      "type": "VEC3"
    },
    {
      "bufferView": 2,
      "byteOffset": 3931920,
      "componentType": 5126,
      "count": 65532,
      "max": [
        0.9999603033065796,
        0.9999982118606567,
        0.9999099969863892
      ],
      "min": [
        -0.9999423027038574,
        -0.9999998807907104,
        -0.9999955892562866
      ],
      "type": "VEC3"
    },
    {
      "bufferView": 3,
      "byteOffset": 2097024,
      "componentType": 5126,
      "count": 65532,
      "max": [
        0.9998942613601685,
        0.9999427199363708,
        0.9999746680259705,
        1.0
      ],
      "min": [
        -0.9997005462646484,
        -0.999737024307251,
        -0.9997008442878723,
        1.0
      ],
      "type": "VEC4"
    },
    {
      "bufferView": 1,
      "byteOffset": 1048512,
      "componentType": 5126,
      "count": 65532,
      "max": [
        0.9854519963264465,
        0.9983469843864441
      ],
      "min": [
        0.006566000171005726,
        6.600000051548705e-05
      ],
      "type": "VEC2"
    },
    {
      "bufferView": 0,
      "byteOffset": 2844420,
      "componentType": 5125,
      "count": 332127,
      "type": "SCALAR"
    },
    {
      "bufferView": 2,
      "byteOffset": 4718304,
      "componentType": 5126,
      "count": 65532,
      "max": [
        4.331556797027588,
        1.8806439638137817,
        11.393321990966797
      ],
      "min": [
        -3.1389060020446777,
        -2.0624520778656006,
        0.1851010024547577
      ],
      "type": "VEC3"
    },
    {
      "bufferView": 2,
      "byteOffset": 5504688,
      "componentType": 5126,
      "count": 65532,
      "max": [
        0.9999537467956543,
        0.9999982118606567,
        0.999997615814209
      ],
      "min": [
        -0.9995459914207458,
        -0.9999995231628418,
        -0.9999724626541138
      ],
      "type": "VEC3"
    },
    {
      "bufferView": 3,
      "byteOffset": 3145536,
      "componentType": 5126,
      "count": 65532,
      "max": [
        0.9998628497123718,
        0.9999963641166687,
        0.9999996423721313,
        1.0
      ],
      "min": [
        -0.9999566674232483,
        -0.9999935626983643,
        -0.9998987317085266,
        -1.0
      ],
      "type": "VEC4"
    },
    {
      "bufferView": 1,
      "byteOffset": 1572768,
      "componentType": 5126,
      "count": 65532,
      "max": [
        0.9998890161514282,
        0.9989629983901978
      ],
      "min": [
        0.008976000361144543,
        0.000493000028654933
      ],
      "type": "VEC2"
    },
    {
      "bufferView": 0,
      "byteOffset": 4172928,
      "componentType": 5125,
      "count": 330444,
      "type": "SCALAR"
    },
    {
      "bufferView": 2,
      "byteOffset": 6291072,
      "componentType": 5126,
      "count": 65532,
      "max": [
        1.3202329874038696,
        1.9079639911651611,
        11.35721206665039
      ],
      "min": [
        -5.159983158111572,
        -1.9479880332946777,
        0.8852319717407227
      ],
      "type": "VEC3"
    },
    {
      "bufferView": 2,
      "byteOffset": 7077456,
      "componentType": 5126,
      "count": 65532,
      "max": [
        0.9999749660491943,
        0.9999996423721313,
        0.9999778270721436
      ],
      "min": [
        -0.9998745918273926,
        -1.0,
        -0.9999885559082031
      ],
      "type": "VEC3"
    },
    {
      "bufferView": 3,
      "byteOffset": 4194048,
      "componentType": 5126,
      "count": 65532,
      "max": [
        0.9999359250068665,
        0.9999901056289673,
        0.9998035430908203,
        1.0
      ],
      "min": [
        -0.9999774098396301,
        -0.9994255900382996,
        -0.9999927282333374,
        1.0
      ],
      "type": "VEC4"
    },
    {
      "bufferView": 1,
      "byteOffset": 2097024,
      "componentType": 5126,
      "count": 65532,
      "max": [
        0.998009979724884,
        0.9989550113677979
      ],
      "min": [
        0.013399000279605389,
        0.0010049999691545963
      ],
      "type": "VEC2"
    },
    {
      "bufferView": 0,
      "byteOffset": 5494704,
      "componentType": 5125,
      "count": 351105,
      "type": "SCALAR"
    },
    {
      "bufferView": 2,
      "byteOffset": 7863840,
      "componentType": 5126,
      "count": 65532,
      "max": [
        1.0107799768447876,
        1.9058769941329956,
        11.406122207641602
      ],
      "min": [
        -5.349131107330322,
        -1.9922280311584473,
        2.6019930839538574
      ],
      "type": "VEC3"
    },
    {
      "bufferView": 2,
      "byteOffset": 8650224,
      "componentType": 5126,
      "count": 65532,
      "max": [
        0.9999591112136841,
        0.9999984502792358,
        0.9999997615814209
      ],
      "min": [
        -0.999972939491272,
        -0.9999997615814209,
        -0.9999853372573853
      ],
      "type": "VEC3"
    },
    {
      "bufferView": 3,
      "byteOffset": 5242560,
      "componentType": 5126,
      "count": 65532,
      "max": [
        0.9999440312385559,
        0.9999156594276428,
        0.9999987483024597,
        1.0
      ],
      "min": [
        -0.9999743700027466,
        -0.9986175894737244,
        -0.9997914433479309,
        1.0
      ],
      "type": "VEC4"
    },
    {
      "bufferView": 1,
      "byteOffset": 2621280,
      "componentType": 5126,
      "count": 65532,
      "max": [
        0.9988260269165039,
        0.9878870248794556
      ],
      "min": [
        0.010773000307381153,
        0.0015719999792054296
      ],
      "type": "VEC2"
    },
    {
      "bufferView": 0,
      "byteOffset": 6899124,
      "componentType": 5125,
      "count": 335565,
      "type": "SCALAR"
    },
    {
      "bufferView": 2,
      "byteOffset": 9436608,
      "componentType": 5126,
      "count": 65532,
      "max": [
        2.793734073638916,
        1.9075579643249512,
        11.4019775390625
      ],
      "min": [
        -5.353579044342041,
        -2.0136899948120117,
        0.8858159780502319
      ],
      "type": "VEC3"
    },
    {
      "bufferView": 2,
      "byteOffset": 10222992,
      "componentType": 5126,
      "count": 65532,
      "max": [
        0.99982088804245,
        0.9999995231628418,
        0.9999775886535645
      ],
      "min": [
        -0.9999992847442627,
        -0.9999990463256836,
        -0.9999358654022217
      ],
      "type": "VEC3"
    },
    {
      "bufferView": 3,
      "byteOffset": 6291072,
      "componentType": 5126,
      "count": 65532,
      "max": [
        0.9999823570251465,
        0.9998956322669983,
        0.9997732639312744,
        1.0
      ],
      "min": [
        -0.9999586343765259,
        -0.9999913573265076,
        -0.9999970197677612,
        1.0
      ],
      "type": "VEC4"
    },
    {
      "bufferView": 1,
      "byteOffset": 3145536,
      "componentType": 5126,
      "count": 65532,
      "max": [
        0.9983059763908386,
        0.9964249730110168
      ],
      "min": [
        0.00021800000104121864,
        0.000155999994603917
      ],
      "type": "VEC2"
    },
    {
      "bufferView": 0,
      "byteOffset": 8241384,
      "componentType": 5125,
      "count": 320295,
      "type": "SCALAR"
    },
    {
      "bufferView": 2,
      "byteOffset": 11009376,
      "componentType": 5126,
      "count": 48194,
      "max": [
        3.2739830017089844,
        1.9030539989471436,
        11.405815124511719
      ],
      "min": [
        -4.5334601402282715,
        -2.0485429763793945,
        0.41132399439811707
      ],
      "type": "VEC3"
    },
    {
      "bufferView": 2,
      "byteOffset": 11587704,
      "componentType": 5126,
      "count": 48194,
      "max": [
        0.9999825954437256,
        0.9999973773956299,
        0.9999997615814209
      ],
      "min": [
        -0.9999768733978271,
        -0.9999997615814209,
        -0.9998886585235596
      ],
      "type": "VEC3"
    },
    {
      "bufferView": 3,
      "byteOffset": 7339584,
      "componentType": 5126,
      "count": 48194,
      "max": [
        0.9999713897705078,
        0.9999896883964539,
        0.9999987483024597,
        1.0
      ],
      "min": [
        -0.9999946355819702,
        -0.9999913573265076,
        -0.999936580657959,
        1.0
      ],
      "type": "VEC4"
    },
    {
      "bufferView": 1,
      "byteOffset": 3669792,
      "componentType": 5126,
      "count": 48194,
      "max": [
        0.9998589754104614,
        0.9989070296287537
      ],
      "min": [
        0.0015699999639764428,
        7.500000356230885e-05
      ],
      "type": "VEC2"
    },
    {
      "bufferView": 0,
      "byteOffset": 9522564,
      "componentType": 5125,
      "count": 205089,
      "type": "SCALAR"
    }
  ],
  "asset": {
    "extras": {
      "author": "Lassi Kaukonen (https://sketchfab.com/thesidekick)",
      "license": "CC-BY-4.0 (http://creativecommons.org/licenses/by/4.0/)",
      "source": "https://sketchfab.com/3d-models/studded-tyre-3e20cb9e1e664f35b7f0dd26f305086b",
      "title": "Studded Tyre"
    },
    "generator": "Sketchfab-13.17.0",
    "version": "2.0"
  },
  "bufferViews": [
    {
      "buffer": 0,
      "byteLength": 10342920,
      "name": "floatBufferViews",
      "target": 34963
    },
    {
      "buffer": 0,
      "byteLength": 4055344,
      "byteOffset": 10342920,
      "byteStride": 8,
      "name": "floatBufferViews",
      "target": 34962
    },
    {
      "buffer": 0,
      "byteLength": 12166032,
      "byteOffset": 14398264,
      "byteStride": 12,
      "name": "floatBufferViews",
      "target": 34962
    },
    {
      "buffer": 0,
      "byteLength": 8110688,
      "byteOffset": 26564296,
      "byteStride": 16,
      "name": "floatBufferViews",
      "target": 34962
    }
  ],
  "buffers": [
    {
      "byteLength": 34674984,
      "uri": "scene.bin"
    }
  ],
  "images": [
    {
      "uri": "textures/Studded_Tyre_baseColor.jpeg"
    },
    {
      "uri": "textures/Studded_Tyre_metallicRoughness.png"
    },
    {
      "uri": "textures/Studded_Tyre_normal.png"
    }
  ],
  "materials": [
    {
      "doubleSided": true,
      "name": "Studded_Tyre",
      "normalTexture": {
        "index": 2
      },
      "occlusionTexture": {
        "index": 1
      },
      "pbrMetallicRoughness": {
        "baseColorTexture": {
          "index": 0
        },
        "metallicFactor": 0.0,
        "metallicRoughnessTexture": {
          "index": 1
        }
      }
    }
  ],
  "meshes": [
    {
      "name": "Object_0",
      "primitives": [
        {
          "attributes": {
            "NORMAL": 1,
            "POSITION": 0,
            "TANGENT": 2,
            "TEXCOORD_0": 3
          },
          "indices": 4,
          "material": 0,
          "mode": 4
        }
      ]
    },
    {
      "name": "Object_1",
      "primitives": [
        {
          "attributes": {
            "NORMAL": 6,
            "POSITION": 5,
            "TANGENT": 7,
            "TEXCOORD_0": 8
          },
          "indices": 9,
          "material": 0,
          "mode": 4
        }
      ]
    },
    {
      "name": "Object_2",
      "primitives": [
        {
          "attributes": {
            "NORMAL": 11,
            "POSITION": 10,
            "TANGENT": 12,
            "TEXCOORD_0": 13
          },
          "indices": 14,
          "material": 0,
          "mode": 4
        }
      ]
    },
    {
      "name": "Object_3",
      "primitives": [
        {
          "attributes": {
            "NORMAL": 16,
            "POSITION": 15,
            "TANGENT": 17,
            "TEXCOORD_0": 18
          },
          "indices": 19,
          "material": 0,
          "mode": 4
        }
      ]
    },
    {
      "name": "Object_4",
      "primitives": [
        {
          "attributes": {
            "NORMAL": 21,
            "POSITION": 20,
            "TANGENT": 22,
            "TEXCOORD_0": 23
          },
          "indices": 24,
          "material": 0,
          "mode": 4
        }
      ]
    },
    {
      "name": "Object_5",
      "primitives": [
        {
          "attributes": {
            "NORMAL": 26,
            "POSITION": 25,
            "TANGENT": 27,
            "TEXCOORD_0": 28
          },
          "indices": 29,
          "material": 0,
          "mode": 4
        }
      ]
    },
    {
      "name": "Object_6",
      "primitives": [
        {
          "attributes": {
            "NORMAL": 31,
            "POSITION": 30,
            "TANGENT": 32,
            "TEXCOORD_0": 33
          },
          "indices": 34,
          "material": 0,
          "mode": 4
        }
      ]
    },
    {
      "name": "Object_7",
      "primitives": [
        {
          "attributes": {
            "NORMAL": 36,
            "POSITION": 35,
            "TANGENT": 37,
            "TEXCOORD_0": 38
          },
          "indices": 39,
          "material": 0,
          "mode": 4
        }
      ]
    }
  ],
  "nodes": [
    {
      "children": [
        1
      ],
      "matrix": [
        1.0,
        0.0,
        0.0,
        0.0,
        0.0,
        2.220446049250313e-16,
        -1.0,
        0.0,
        0.0,
        1.0,
        2.220446049250313e-16,
        0.0,
        0.0,
        0.0,
        0.0,
        1.0
      ],
      "name": "Sketchfab_model"
    },
    {
      "children": [
        2,
        3,
        4,
        5,
        6,
        7,
        8,
        9
      ],
      "name": "Studded_Tyre_SF.obj.cleaner.materialmerger.gles"
    },
    {
      "mesh": 0,
      "name": "Object_2"
    },
    {
      "mesh": 1,
      "name": "Object_3"
    },
    {
      "mesh": 2,
      "name": "Object_4"
    },
    {
      "mesh": 3,
      "name": "Object_5"
    },
    {
      "mesh": 4,
      "name": "Object_6"
    },
    {
      "mesh": 5,
      "name": "Object_7"
    },
    {
      "mesh": 6,
      "name": "Object_8"
    },
    {
      "mesh": 7,
      "name": "Object_9"
    }
  ],
  "samplers": [
    {
      "magFilter": 9729,
      "minFilter": 9987,
      "wrapS": 10497,
      "wrapT": 10497
    }
  ],
  "scene": 0,
  "scenes": [
    {
      "name": "Sketchfab_Scene",
      "nodes": [
        0
      ]
    }
  ],
  "textures": [
    {
      "sampler": 0,
      "source": 0
    },
    {
      "sampler": 0,
      "source": 1
    },
    {
      "sampler": 0,
      "source": 2
    }
  ]
}
