{
  "accessors": [
    {
      "bufferView": 2,
      "componentType": 5126,
      "count": 6783,
      "max": [
        0.9198139905929565,
        2.209709882736206,
        0.6042140126228333
      ],
      "min": [
        -0.9198139905929565,
        -2.1297199726104736,
        -0.49534401297569275
      ],
      "type": "VEC3"
    },
    {
      "bufferView": 2,
      "byteOffset": 81396,
      "componentType": 5126,
      "count": 6783,
      "max": [
        0.9999454021453857,
        0.999951958656311,
        1.0
      ],
      "min": [
        -0.9999454021453857,
        -0.9995588660240173,
        -0.9999998807907104
      ],
      "type": "VEC3"
    },
    {
      "bufferView": 1,
      "componentType": 5126,
      "count": 6783,
      "max": [
        0.9925000071525574,
        0.9958999752998352
      ],
      "min": [
        0.009600000455975533,
        0.009800019674003124
      ],
      "type": "VEC2"
    },
    {
      "bufferView": 0,
      "componentType": 5125,
      "count": 34683,
      "type": "SCALAR"
    },
    {
      "bufferView": 2,
      "byteOffset": 162792,
      "componentType": 5126,
      "count": 8579,
      "max": [
        0.7969210147857666,
        1.544100046157837,
        -0.09295240044593811
      ],
      "min": [
        -0.7969279885292053,
        -1.4128600358963013,
        -0.4529530107975006
      ],
      "type": "VEC3"
    },
    {
      "bufferView": 2,
      "byteOffset": 265740,
      "componentType": 5126,
      "count": 8579,
      "max": [
        0.999998927116394,
        1.0,
        0.9999997615814209
      ],
      "min": [
        -0.9999988079071045,
        -1.0,
        -0.9999997019767761
      ],
      "type": "VEC3"
    },
    {
      "bufferView": 1,
      "byteOffset": 54264,
      "componentType": 5126,
      "count": 8579,
      "max": [
        0.9984930157661438,
        0.9998520016670227
      ],
      "min": [
        0.001705880044028163,
        0.002990130102261901
      ],
      "type": "VEC2"
    },
    {
      "bufferView": 0,
      "byteOffset": 138732,
      "componentType": 5125,
      "count": 23040,
      "type": "SCALAR"
    },
    {
      "bufferView": 2,
      "byteOffset": 368688,
      "componentType": 5126,
      "count": 464,
      "max": [
        0.7626929879188538,
        1.9865399599075317,
        0.2300270050764084
      ],
      "min": [
        -0.7626940011978149,
        -2.017080068588257,
        -0.030472900718450546
      ],
      "type": "VEC3"
    },
    {
      "bufferView": 2,
      "byteOffset": 374256,
      "componentType": 5126,
      "count": 464,
      "max": [
        0.9935394525527954,
        0.9999998807907104,
        0.9814972281455994
      ],
      "min": [
        -0.9935394525527954,
        -0.9818252921104431,
        -0.979576051235199
      ],
      "type": "VEC3"
    },
    {
      "bufferView": 1,
      "byteOffset": 122896,
      "componentType": 5126,
      "count": 464,
      "max": [
        0.9707030057907104,
        0.9908779859542847
      ],
      "min": [
        0.005400000140070915,
        0.0224808007478714
      ],
      "type": "VEC2"
    },
    {
      "bufferView": 0,
      "byteOffset": 230892,
      "componentType": 5125,
      "count": 2118,
      "type": "SCALAR"
    },
    {
      "bufferView": 2,
      "byteOffset": 379824,
      "componentType": 5126,
      "count": 65532,
      "max": [
        0.9785559773445129,
        1.6858799457550049,
        0.06551340222358704
      ],
      "min": [
        -0.9503629803657532,
        -1.5590900182724,
        -0.5992670059204102
      ],
      "type": "VEC3"
    },
    {
      "bufferView": 2,
      "byteOffset": 1166208,
      "componentType": 5126,
      "count": 65532,
      "max": [
        1.0,
        0.9999924898147583,
        0.9999924302101135
      ],
      "min": [
        -1.0,
        -0.9999925494194031,
        -0.9999924302101135
      ],
      "type": "VEC3"
    },
    {
      "bufferView": 1,
      "byteOffset": 126608,
      "componentType": 5126,
      "count": 65532,
      "max": [
        1.0080699920654297,
        1.0205199718475342
      ],
      "min": [
        -0.006890770047903061,
        -0.02917579934000969
      ],
      "type": "VEC2"
    },
    {
      "bufferView": 0,
      "byteOffset": 239364,
      "componentType": 5125,
      "count": 240213,
      "type": "SCALAR"
    },
    {
      "bufferView": 2,
      "byteOffset": 1952592,
      "componentType": 5126,
      "count": 22931,
      "max": [
        0.9785559773445129,
        1.6835800409317017,
        0.05751959979534149
      ],
      "min": [
        -0.9526320099830627,
        -1.5590900182724,
        -0.5981640219688416
      ],
      "type": "VEC3"
    },
    {
      "bufferView": 2,
      "byteOffset": 2227764,
      "componentType": 5126,
      "count": 22931,
      "max": [
        1.0,
        0.9999877214431763,
        0.9996795058250427
      ],
      "min": [
        -1.0,
        -0.999819815158844,
        -0.9992015361785889
      ],
      "type": "VEC3"
    },
    {
      "bufferView": 1,
      "byteOffset": 650864,
      "componentType": 5126,
      "count": 22931,
      "max": [
        1.0080699920654297,
        1.0205199718475342
      ],
      "min": [
        -0.006890770047903061,
        -0.02917579934000969
      ],
      "type": "VEC2"
    },
    {
      "bufferView": 0,
      "byteOffset": 1200216,
      "componentType": 5125,
      "count": 70443,
      "type": "SCALAR"
    },
    {
      "bufferView": 2,
      "byteOffset": 2502936,
      "componentType": 5126,
      "count": 12800,
      "max": [
        0.9535049796104431,
        1.6262099742889404,
        -0.00415741978213191
      ],
      "min": [
        -0.9325439929962158,
        -1.4884599447250366,
        -0.526951014995575
      ],
      "type": "VEC3"
    },
    {
      "bufferView": 2,
      "byteOffset": 2656536,
      "componentType": 5126,
      "count": 12800,
      "max": [
        1.0,
        0.9999997615814209,
        0.9999997615814209
      ],
      "min": [
        -1.0,
        -0.9999979138374329,
        -0.9999997615814209
      ],
      "type": "VEC3"
    },
    {
      "bufferView": 1,
      "byteOffset": 834312,
      "componentType": 5126,
      "count": 12800,
      "max": [
        0.9902340173721313,
        0.9972149729728699
      ],
      "min": [
        0.00804137997329235,
        0.010253899730741978
      ],
      "type": "VEC2"
    },
    {
      "bufferView": 0,
      "byteOffset": 1481988,
      "componentType": 5125,
      "count": 36648,
      "type": "SCALAR"
    },
    {
      "bufferView": 2,
      "byteOffset": 2810136,
      "componentType": 5126,
      "count": 7714,
      "max": [
        0.945015013217926,
        2.206279993057251,
        0.6346650123596191
      ],
      "min": [
        -0.945015013217926,
        -2.209709882736206,
        -0.49534401297569275
      ],
      "type": "VEC3"
    },
    {
      "bufferView": 2,
      "byteOffset": 2902704,
      "componentType": 5126,
      "count": 7714,
      "max": [
        1.0,
        1.0,
        1.0
      ],
      "min": [
        -1.0,
        -1.0,
        -1.0
      ],
      "type": "VEC3"
    },
    {
      "bufferView": 1,
      "byteOffset": 936712,
      "componentType": 5126,
      "count": 7714,
      "max": [
        134.56199645996094,
        51.983299255371094
      ],
      "min": [
        -189.85699462890625,
        -32.057098388671875
      ],
      "type": "VEC2"
    },
    {
      "bufferView": 0,
      "byteOffset": 1628580,
      "componentType": 5125,
      "count": 30486,
      "type": "SCALAR"
    }
  ],
  "asset": {
    "extras": {
      "author": "leman23rus (https://sketchfab.com/lema23rus)",
      "license": "CC-BY-4.0 (http://creativecommons.org/licenses/by/4.0/)",
      "source": "https://sketchfab.com/3d-models/hyundai-f82afacba6194677b219d708091f374b",
      "title": "Hyundai"
    },
    "generator": "Sketchfab-12.68.0",
    "version": "2.0"
  },
  "bufferViews": [
    {
      "buffer": 0,
      "byteLength": 1750524,
      "name": "floatBufferViews",
      "target": 34963
    },
    {
      "buffer": 0,
      "byteLength": 998424,
      "byteOffset": 1750524,
      "byteStride": 8,
      "name": "floatBufferViews",
      "target": 34962
    },
    {
      "buffer": 0,
      "byteLength": 2995272,
      "byteOffset": 2748948,
      "byteStride": 12,
      "name": "floatBufferViews",
      "target": 34962
    }
  ],
  "buffers": [
    {
      "byteLength": 5744220,
      "uri": "scene.bin"
    }
  ],
  "images": [
    {
      "uri": "textures/brake__spec_baseColor.png"
    },
    {
      "uri": "textures/hyundai__spec_baseColor.png"
    },
    {
      "uri": "textures/sidewa_result__spec_baseColor.png"
    },
    {
      "uri": "textures/wheel__spec_baseColor.png"
    }
  ],
  "materials": [
    {
      "doubleSided": true,
      "name": "Matte__FF000000__env_1_spec",
      "pbrMetallicRoughness": {
        "baseColorFactor": [
          0.0,
          0.0,
          0.0,
          1.0
        ],
        "metallicFactor": 0.0,
        "roughnessFactor": 0.6
      }
    },
    {
      "doubleSided": true,
      "name": "Matte__FFFFFFFF__prim_env_1_spec",
      "pbrMetallicRoughness": {
        "baseColorFactor": [
          0.3921895658718546,
          0.3921895658718546,
          0.3921895658718546,
          1.0
        ],
        "metallicFactor": 0.0,
        "roughnessFactor": 0.6
      }
    },
    {
      "doubleSided": true,
      "name": "brake__spec",
      "pbrMetallicRoughness": {
        "baseColorTexture": {
          "index": 0
        },
        "metallicFactor": 0.0,
        "roughnessFactor": 0.6
      }
    },
    {
      "doubleSided": true,
      "name": "hyundai__spec",
      "pbrMetallicRoughness": {
        "baseColorTexture": {
          "index": 1
        },
        "metallicFactor": 0.0,
        "roughnessFactor": 0.6
      }
    },
    {
      "doubleSided": true,
      "name": "sidewa_result__spec",
      "pbrMetallicRoughness": {
        "baseColorTexture": {
          "index": 2
        },
        "metallicFactor": 0.0,
        "roughnessFactor": 0.6
      }
    },
    {
      "doubleSided": true,
      "name": "wheel__spec",
      "pbrMetallicRoughness": {
        "baseColorTexture": {
          "index": 3
        },
        "metallicFactor": 0.0,
        "roughnessFactor": 0.6
      }
    }
  ],
  "meshes": [
    {
      "name": "Object_0",
      "primitives": [
        {
          "attributes": {
            "NORMAL": 1,
            "POSITION": 0,
            "TEXCOORD_0": 2
          },
          "indices": 3,
          "material": 1,
          "mode": 4
        }
      ]
    },
    {
      "name": "Object_1",
      "primitives": [
        {
          "attributes": {
            "NORMAL": 5,
            "POSITION": 4,
            "TEXCOORD_0": 6
          },
          "indices": 7,
          "material": 2,
          "mode": 4
        }
      ]
    },
    {
      "name": "Object_2",
      "primitives": [
        {
          "attributes": {
            "NORMAL": 9,
            "POSITION": 8,
            "TEXCOORD_0": 10
          },
          "indices": 11,
          "material": 3,
          "mode": 4
        }
      ]
    },
    {
      "name": "Object_3",
      "primitives": [
        {
          "attributes": {
            "NORMAL": 13,
            "POSITION": 12,
            "TEXCOORD_0": 14
          },
          "indices": 15,
          "material": 4,
          "mode": 4
        }
      ]
    },
    {
      "name": "Object_4",
      "primitives": [
        {
          "attributes": {
            "NORMAL": 17,
            "POSITION": 16,
            "TEXCOORD_0": 18
          },
          "indices": 19,
          "material": 4,
          "mode": 4
        }
      ]
    },
    {
      "name": "Object_5",
      "primitives": [
        {
          "attributes": {
            "NORMAL": 21,
            "POSITION": 20,
            "TEXCOORD_0": 22
          },
          "indices": 23,
          "material": 5,
          "mode": 4
        }
      ]
    },
    {
      "name": "Object_6",
      "primitives": [
        {
          "attributes": {
            "NORMAL": 25,
            "POSITION": 24,
            "TEXCOORD_0": 26
          },
          "indices": 27,
          "material": 0,
          "mode": 4
        }
      ]
    }
  ],
  "nodes": [
    {
      "children": [
        1
      ],
      "matrix": [
        1.0,
        0.0,
        0.0,
        0.0,
        0.0,
        2.220446049250313e-16,
        -1.0,
        0.0,
        0.0,
        1.0,
        2.220446049250313e-16,
        0.0,
        0.0,
        0.0,
        0.0,
        1.0
      ],
      "name": "Sketchfab_model"
    },
    {
      "children": [
        2,
        3,
        4,
        5,
        6,
        7,
        8
      ],
      "name": "1.obj.cleaner.materialmerger.gles"
    },
    {
      "mesh": 0,
      "name": "Object_2"
    },
    {
      "mesh": 1,
      "name": "Object_3"
    },
    {
      "mesh": 2,
      "name": "Object_4"
    },
    {
      "mesh": 3,
      "name": "Object_5"
    },
    {
      "mesh": 4,
      "name": "Object_6"
    },
    {
      "mesh": 5,
      "name": "Object_7"
    },
    {
      "mesh": 6,
      "name": "Object_8"
    }
  ],
  "samplers": [
    {
      "magFilter": 9729,
      "minFilter": 9987,
      "wrapS": 10497,
      "wrapT": 10497
    }
  ],
  "scene": 0,
  "scenes": [
    {
      "name": "Sketchfab_Scene",
      "nodes": [
        0
      ]
    }
  ],
  "textures": [
    {
      "sampler": 0,
      "source": 0
    },
    {
      "sampler": 0,
      "source": 1
    },
    {
      "sampler": 0,
      "source": 2
    },
    {
      "sampler": 0,
      "source": 3
    }
  ]
}
